<?xml version="1.0" encoding="utf-8"?>
<!-- Generator: Adobe Illustrator 25.4.1, SVG Export Plug-In . SVG Version: 6.00 Build 0)  -->
<svg version="1.1" id="Capa_1" xmlns="http://www.w3.org/2000/svg" xmlns:xlink="http://www.w3.org/1999/xlink" x="0px" y="0px"
	 viewBox="0 0 590.2 608.2" style="enable-background:new 0 0 590.2 608.2;" xml:space="preserve">
<style type="text/css">
	.st0{fill:#FFFFFF;}
	.st1{fill-rule:evenodd;clip-rule:evenodd;fill:#FFFFFF;}
</style>
<g>
	<path class="st0" d="M504.5,489.1c-236.2,112.4-382.8,18.4-476.6-38.8c-5.8-3.6-15.7,0.8-7.1,10.7
		C52,498.9,154.5,590.3,288.2,590.3c133.8,0,213.4-73,223.4-85.8C521.5,491.9,514.5,484.9,504.5,489.1L504.5,489.1z M570.9,452.4
		c-6.3-8.3-38.6-9.8-58.9-7.3c-20.3,2.4-50.8,14.8-48.2,22.3c1.4,2.8,4.1,1.5,18.1,0.3c14-1.4,53.2-6.3,61.4,4.3
		c8.2,10.8-12.5,62-16.3,70.2c-3.7,8.3,1.4,10.4,8.3,4.9c6.8-5.5,19-19.7,27.2-39.9S575.7,458.7,570.9,452.4L570.9,452.4z"/>
	<path class="st1" d="M345.7,259.7c0,29.5,0.7,54.1-14.2,80.3c-12,21.3-31.1,34.4-52.4,34.4c-29.1,0-46-22.1-46-54.8
		c0-64.5,57.8-76.2,112.6-76.2V259.7z M422.1,444.2c-5,4.5-12.2,4.8-17.9,1.8c-25.1-20.9-29.6-30.6-43.4-50.5
		c-41.5,42.4-70.9,55.1-124.8,55.1c-63.7,0-113.3-39.3-113.3-118c0-61.4,33.3-103.3,80.7-123.7c41.1-18.1,98.5-21.3,142.4-26.3v-9.8
		c0-18,1.4-39.3-9.2-54.8c-9.3-13.9-26.9-19.7-42.5-19.7c-28.9,0-54.6,14.8-60.9,45.5c-1.3,6.8-6.3,13.5-13.1,13.8l-73.5-7.9
		c-6.2-1.4-13-6.4-11.3-15.9C152.2,44.8,232.6,18,304.6,18c36.8,0,85,9.8,114,37.7C455.5,90.1,452,136,452,185.9v118
		c0,35.5,14.7,51,28.5,70.2c4.9,6.8,6,15-0.2,20.1c-15.4,12.9-42.9,36.8-58,50.3L422.1,444.2"/>
	<path class="st0" d="M504.5,489.1c-236.2,112.4-382.8,18.4-476.6-38.8c-5.8-3.6-15.7,0.8-7.1,10.7
		C52,498.9,154.5,590.3,288.2,590.3c133.8,0,213.4-73,223.4-85.8C521.5,491.9,514.5,484.9,504.5,489.1L504.5,489.1z M570.9,452.4
		c-6.3-8.3-38.6-9.8-58.9-7.3c-20.3,2.4-50.8,14.8-48.2,22.3c1.4,2.8,4.1,1.5,18.1,0.3c14-1.4,53.2-6.3,61.4,4.3
		c8.2,10.8-12.5,62-16.3,70.2c-3.7,8.3,1.4,10.4,8.3,4.9c6.8-5.5,19-19.7,27.2-39.9S575.7,458.7,570.9,452.4L570.9,452.4z"/>
	<path class="st1" d="M345.7,259.7c0,29.5,0.7,54.1-14.2,80.3c-12,21.3-31.1,34.4-52.4,34.4c-29.1,0-46-22.1-46-54.8
		c0-64.5,57.8-76.2,112.6-76.2V259.7z M422.1,444.2c-5,4.5-12.2,4.8-17.9,1.8c-25.1-20.9-29.6-30.6-43.4-50.5
		c-41.5,42.4-70.9,55.1-124.8,55.1c-63.7,0-113.3-39.3-113.3-118c0-61.4,33.3-103.3,80.7-123.7c41.1-18.1,98.5-21.3,142.4-26.3v-9.8
		c0-18,1.4-39.3-9.2-54.8c-9.3-13.9-26.9-19.7-42.5-19.7c-28.9,0-54.6,14.8-60.9,45.5c-1.3,6.8-6.3,13.5-13.1,13.8l-73.5-7.9
		c-6.2-1.4-13-6.4-11.3-15.9C152.2,44.8,232.6,18,304.6,18c36.8,0,85,9.8,114,37.7C455.5,90.1,452,136,452,185.9v118
		c0,35.5,14.7,51,28.5,70.2c4.9,6.8,6,15-0.2,20.1c-15.4,12.9-42.9,36.8-58,50.3L422.1,444.2"/>
</g>
</svg>
