<?xml version="1.0" encoding="utf-8"?>
<!-- Generator: Adobe Illustrator 25.4.1, SVG Export Plug-In . SVG Version: 6.00 Build 0)  -->
<svg version="1.1" id="Capa_1" xmlns="http://www.w3.org/2000/svg" xmlns:xlink="http://www.w3.org/1999/xlink" x="0px" y="0px"
	 viewBox="0 0 500 500" style="enable-background:new 0 0 500 500;" xml:space="preserve">
<style type="text/css">
	.st0{fill:#FFFFFF;stroke:#000000;stroke-miterlimit:10;}
	.st1{fill:#FFFFFF;}
</style>
<path class="st0" d="M364,311.1L364,311.1"/>
<path class="st0" d="M154.4,311.1L154.4,311.1"/>
<g>
	<g>
		<path class="st1" d="M405.8,245.9h-27.2c0,71-57.7,128.7-128.7,128.7c-71,0-128.7-57.7-128.7-128.7H94.2
			c0,81.4,62.7,148.3,142.3,155.2v89.9h27.2v-89.9C343.2,394.2,405.8,327.3,405.8,245.9z"/>
	</g>
	<g>
		<path class="st1" d="M250,337.5c-40.7,0-73.8-33.1-73.8-73.8v-181c0-40.7,33.1-73.8,73.8-73.8s73.8,33.1,73.8,73.8v181
			C323.8,304.4,290.7,337.5,250,337.5z M250,36.1c-25.7,0-46.6,20.9-46.6,46.6v181c0,25.7,20.9,46.6,46.6,46.6
			c25.7,0,46.6-20.9,46.6-46.6v-181C296.6,57,275.7,36.1,250,36.1z"/>
	</g>
</g>
</svg>
