<?xml version="1.0" encoding="utf-8"?>
<!-- Generator: Adobe Illustrator 25.4.1, SVG Export Plug-In . SVG Version: 6.00 Build 0)  -->
<svg version="1.1" id="Capa_1" xmlns="http://www.w3.org/2000/svg" xmlns:xlink="http://www.w3.org/1999/xlink" x="0px" y="0px"
	 viewBox="0 0 2500 1650" style="enable-background:new 0 0 2500 1650;" xml:space="preserve">
<style type="text/css">
	.st0{fill:#FFFFFF;}
</style>
<g>
	<path class="st0" d="M885.3,31.2c104,0,206.9,20.5,302.9,60.4S1371.5,190,1445,263.7c73.5,73.7,131.8,161.2,171.6,257.5
		c39.8,96.3,60.3,199.5,60.3,303.8c0,321.1-192.9,610.5-488.7,733.3s-636.2,55-862.6-172.1S31.5,817.8,154,521.2
		C276.6,224.6,565.2,31.2,885.3,31.2z M885.3,1063.1c31.2,0,62.1-6.1,90.9-18c28.8-11.9,55-29.5,77.1-51.6
		c22.1-22.1,39.5-48.4,51.5-77.3c11.9-28.9,18-59.9,18-91.2c0-96.3-57.9-183.2-146.6-220s-190.9-16.5-258.8,51.6
		S629.2,827.1,666,916.1S789.3,1063.1,885.3,1063.1L885.3,1063.1z"/>
	<path class="st0" d="M1775,626.6c201.1,58,438.5,0,438.5,0c-68.9,301.6-287.4,490.6-602.4,513.5c-30.4,70.7-70.9,136.6-120.2,195.6
		c-49.3,59-107,110.4-171.2,152.8c-64.2,42.3-134.1,75-207.7,97.1s-149.9,33.2-226.7,33.2l237.5-756.9
		c244.1-778,369.2-830.7,948.2-830.7h397.5C2402,324.9,2172.8,549.3,1775,626.6L1775,626.6z"/>
</g>
</svg>
