<?xml version="1.0" encoding="utf-8"?>
<!-- Generator: Adobe Illustrator 25.4.1, SVG Export Plug-In . SVG Version: 6.00 Build 0)  -->
<svg version="1.1" id="Capa_1" xmlns="http://www.w3.org/2000/svg" xmlns:xlink="http://www.w3.org/1999/xlink" x="0px" y="0px"
	 viewBox="0 0 256 290" style="enable-background:new 0 0 256 290;" xml:space="preserve">
<style type="text/css">
	.st0{fill:#FFFFFF;}
</style>
<g>
	<path class="st0" d="M188.7,105.5c18.4,13.1,40.9,20.8,65.2,20.8V79.6c-4.6,0-9.2-0.5-13.7-1.4v36.8c-24.3,0-46.8-7.7-65.2-20.8
		v95.4c0,47.7-38.7,86.4-86.4,86.4c-17.8,0-34.4-5.4-48.1-14.6c15.7,16,37.6,26,61.8,26c47.7,0,86.4-38.7,86.4-86.4L188.7,105.5
		L188.7,105.5L188.7,105.5z M205.6,58.3c-9.4-10.2-15.5-23.5-16.9-38.1v-6h-13C179,32.8,190.1,48.7,205.6,58.3z M70.6,224.6
		c-5.2-6.9-8.1-15.3-8.1-23.9c0-21.8,17.7-39.5,39.5-39.5c4.1,0,8.1,0.6,12,1.9v-47.8c-4.5-0.6-9.1-0.9-13.7-0.8v37.2
		c-3.9-1.2-7.9-1.9-12-1.9c-21.8,0-39.5,17.7-39.5,39.5C48.9,204.8,57.7,218.1,70.6,224.6z"/>
	<path class="st0" d="M240.2,78.1v-9.9c-12.2,0-24.2-3.4-34.6-9.9C214.8,68.4,226.9,75.3,240.2,78.1z M175.7,14.2
		c-0.3-1.8-0.6-3.6-0.7-5.4v-6h-47v186.7c-0.1,21.8-17.7,39.4-39.5,39.4c-6.4,0-12.4-1.5-17.8-4.2c7.2,9.5,18.6,15.6,31.5,15.6
		c21.8,0,39.5-17.6,39.5-39.4V14.2L175.7,14.2L175.7,14.2z M100.4,114.5v-10.6c-3.9-0.5-7.9-0.8-11.9-0.8
		c-47.7,0-86.4,38.7-86.4,86.4c0,29.9,15.2,56.3,38.3,71.8c-15.2-15.6-24.6-36.9-24.6-60.4C15.8,153.7,53.5,115.4,100.4,114.5z"/>
</g>
</svg>
